<svg width="96" height="96" viewBox="0 0 96 96" fill="none" xmlns="http://www.w3.org/2000/svg">
    <rect width="96" height="96" rx="30" fill="#F2EFE9"/>

    <circle cx="48" cy="48" r="33" fill="#FFFFFF" stroke="#D4CABC" stroke-width="2"/>

    <path
        d="M27 52C30.6 65.5 41.4 72 48.5 72C55.8 72 66.2 65.5 69.5 52"
        stroke="#4A3F35"
        stroke-width="5"
        stroke-linecap="round"
    />

    <path
        d="M31 54C38 59 58 59 65 54"
        stroke="#A98B55"
        stroke-width="3.5"
        stroke-linecap="round"
    />

    <path
        d="M34 48C39 43.5 46 43.2 51 48"
        stroke="#4A3F35"
        stroke-width="3"
        stroke-linecap="round"
    />

    <path
        d="M45 47C50 42 57 42.2 62 47"
        stroke="#4A3F35"
        stroke-width="3"
        stroke-linecap="round"
    />

    <circle cx="43" cy="45" r="2.4" fill="#1E1B18"/>
    <circle cx="54" cy="45" r="2.4" fill="#1E1B18"/>

    <path
        d="M47 50L50 52L53 50"
        stroke="#A98B55"
        stroke-width="2.4"
        stroke-linecap="round"
        stroke-linejoin="round"
    />

    <path
        d="M25 38C30 31 38 27 48 27C58 27 66 31 71 38"
        stroke="#D6CEC4"
        stroke-width="3"
        stroke-linecap="round"
    />
</svg>
